<?xml version="1.0" standalone="no"?>
<!DOCTYPE svg PUBLIC "-//W3C//DTD SVG 20010904//EN"
 "http://www.w3.org/TR/2001/REC-SVG-20010904/DTD/svg10.dtd">
<svg version="1.0" xmlns="http://www.w3.org/2000/svg"
 width="512.000000pt" height="512.000000pt" viewBox="0 0 512.000000 512.000000"
 preserveAspectRatio="xMidYMid meet">

<g transform="translate(0.000000,512.000000) scale(0.100000,-0.100000)"
fill="#000000" stroke="none">
<path d="M2385 5109 c-268 -28 -553 -132 -782 -286 -176 -118 -345 -307 -389
-435 -27 -77 -24 -180 6 -238 40 -79 119 -155 223 -214 l47 -27 0 -200 0 -201
-39 -44 c-22 -26 -43 -63 -50 -89 -14 -56 -14 -154 0 -209 22 -88 107 -155
196 -156 41 0 42 -1 53 -42 53 -211 161 -401 311 -549 l69 -68 0 -118 c0 -92
-4 -126 -18 -153 -16 -34 -19 -35 -65 -32 -38 2 -147 -27 -550 -149 -276 -83
-519 -160 -540 -171 -60 -30 -124 -95 -153 -154 -19 -39 -36 -114 -65 -276
-52 -304 -51 -330 17 -344 24 -4 37 0 58 18 25 21 29 39 66 258 44 257 62 310
119 348 39 25 44 23 60 -33 34 -112 68 -150 136 -149 33 0 447 120 538 156 65
25 86 95 57 188 -45 148 -15 123 179 -149 94 -132 185 -249 202 -262 38 -26
114 -36 161 -20 32 11 34 10 80 -41 29 -33 47 -62 47 -78 0 -14 -41 -252 -92
-530 l-93 -505 -485 -3 -486 -2 34 222 c40 268 42 302 18 328 -20 22 -65 26
-95 10 -26 -14 -35 -51 -70 -300 -17 -118 -33 -225 -35 -237 -5 -23 -6 -23
-203 -23 -213 0 -242 6 -242 53 0 12 16 124 37 249 41 247 40 275 -8 292 -41
14 -78 0 -94 -37 -16 -38 -85 -444 -85 -502 1 -83 70 -173 150 -195 48 -13
3852 -13 3900 0 80 22 149 112 150 195 0 63 -210 1284 -232 1342 -24 65 -91
141 -155 175 -26 14 -274 94 -550 178 -403 121 -512 150 -550 148 -46 -3 -49
-2 -65 32 -14 27 -18 61 -18 153 l0 118 69 68 c150 148 258 338 311 549 11 41
12 42 53 42 89 1 174 68 196 156 14 55 14 153 0 209 -7 26 -28 63 -50 89 l-39
44 0 201 0 200 48 27 c57 33 143 101 175 140 50 60 71 115 71 189 1 134 -68
260 -227 411 -331 316 -835 483 -1312 433z m333 -150 c181 -19 334 -62 502
-141 273 -128 489 -321 547 -491 24 -68 10 -112 -57 -179 -32 -32 -63 -58 -69
-58 -7 0 -11 30 -11 81 0 45 -5 99 -11 120 -15 49 -62 105 -107 128 -38 19
-296 81 -338 81 -56 0 -87 -86 -44 -125 11 -10 80 -31 167 -51 187 -43 183
-39 183 -185 l0 -109 -252 0 -253 0 57 54 c65 61 77 90 54 134 -27 53 -49 54
-299 11 l-227 -39 -227 39 c-250 43 -272 42 -299 -11 -23 -44 -11 -73 54 -134
l57 -54 -252 0 -253 0 0 110 c0 145 1 146 176 188 310 75 507 97 812 89 223
-6 233 -6 252 13 25 25 26 71 2 100 -16 19 -33 24 -123 32 -139 13 -477 4
-614 -16 -218 -32 -492 -96 -540 -126 -86 -53 -115 -114 -115 -240 0 -58 -4
-90 -11 -90 -6 0 -37 26 -69 58 -44 45 -59 67 -64 98 -18 103 88 259 269 398
108 83 162 116 285 175 262 123 540 171 818 140z m-40 -901 l117 20 -75 -70
c-41 -39 -94 -86 -117 -105 l-43 -35 -42 35 c-24 19 -77 66 -118 105 l-75 70
118 -20 c116 -20 118 -20 235 0z m-265 -263 c106 -94 134 -110 173 -95 14 6
69 48 121 95 l95 85 320 0 c354 0 345 2 248 -60 -99 -64 -294 -123 -500 -151
-55 -8 -186 -14 -310 -14 -124 0 -255 6 -310 14 -206 28 -401 87 -500 151 -97
62 -106 60 248 60 l320 0 95 -85z m-665 -224 l3 -79 -56 17 -55 16 0 93 0 92
53 -30 52 -29 3 -80z m1732 47 l0 -93 -55 -16 -55 -16 0 77 0 78 53 30 c28 17
53 31 55 31 1 1 2 -41 2 -91z m-1270 -95 c87 -13 173 -18 350 -18 251 0 374
13 557 59 51 13 95 21 98 18 3 -3 5 -54 5 -113 0 -100 2 -110 25 -137 13 -16
38 -32 55 -35 l30 -6 0 -140 c0 -113 -4 -152 -21 -207 -45 -145 -138 -299
-246 -408 -104 -104 -196 -161 -328 -202 -83 -25 -267 -25 -350 0 -221 68
-396 227 -518 471 -63 126 -77 190 -77 346 l0 140 30 6 c17 3 42 19 55 35 23
27 25 37 25 137 0 59 2 110 5 113 3 3 47 -5 98 -18 51 -12 144 -31 207 -41z
m-586 -149 c13 -5 16 -25 16 -110 l0 -104 -34 0 c-49 0 -66 28 -66 110 0 92
27 126 84 104z m1940 -16 c11 -15 16 -45 16 -88 0 -82 -17 -110 -66 -110 l-34
0 0 104 c0 74 4 106 13 109 28 12 57 6 71 -15z m-1335 -1128 c171 -87 491 -87
662 0 21 11 40 20 42 20 3 0 7 -42 9 -92 3 -76 9 -103 31 -146 15 -30 27 -55
27 -57 0 -7 -431 -325 -440 -325 -9 0 -440 318 -440 325 0 2 12 27 27 57 22
43 28 70 31 146 2 50 6 92 9 92 2 0 21 -9 42 -20z m-51 -510 l233 -173 -113
-49 c-62 -27 -121 -47 -131 -46 -9 2 -84 96 -167 213 l-150 210 27 12 c16 7
37 11 48 10 11 -2 125 -81 253 -177z m1065 167 l27 -12 -150 -210 c-83 -117
-158 -211 -167 -213 -10 -1 -69 19 -131 46 l-113 49 237 177 c131 97 245 176
254 176 8 -1 27 -6 43 -13z m207 -69 c0 -7 -9 -42 -20 -78 -29 -93 -8 -163 57
-188 91 -36 505 -156 538 -156 68 -1 102 37 136 149 16 56 21 58 60 33 65 -44
71 -66 184 -728 58 -338 105 -627 105 -642 0 -52 -24 -58 -242 -58 -197 0
-198 0 -203 23 -2 12 -18 116 -35 232 -40 281 -38 273 -61 296 -25 25 -80 25
-104 -1 -24 -26 -22 -60 18 -328 l34 -222 -486 2 -485 3 -93 505 c-51 278 -92
516 -92 530 0 16 18 45 47 78 46 51 48 52 80 41 47 -16 123 -6 161 20 17 13
108 130 202 262 153 214 199 266 199 227z m-1914 -88 c7 -24 12 -46 10 -47 -4
-4 -418 -133 -427 -133 -9 0 -33 89 -26 96 8 8 410 132 421 130 5 -1 15 -22
22 -46z m2297 -21 c104 -31 191 -60 194 -63 7 -7 -17 -96 -26 -96 -10 0 -423
129 -427 133 -2 2 1 19 7 38 6 19 13 40 15 47 3 9 11 11 26 6 13 -4 108 -33
211 -65z m-1195 -295 c34 -15 62 -31 62 -35 0 -5 -14 -24 -31 -44 -31 -34 -32
-35 -109 -35 -77 0 -78 1 -109 35 -17 20 -31 39 -31 44 0 10 109 59 135 60 11
1 48 -11 83 -25z m-24 -281 c6 -23 176 -959 176 -973 0 -6 -78 -10 -230 -10
-152 0 -230 4 -230 10 0 14 170 950 176 973 4 13 16 17 54 17 38 0 50 -4 54
-17z"/>
<path d="M2985 1128 c-31 -18 -44 -40 -45 -75 0 -43 -6 -37 332 -336 128 -113
112 -118 360 103 112 99 207 191 212 205 13 33 -2 72 -34 97 -25 18 -28 18
-222 -14 l-197 -32 -168 28 c-92 15 -179 30 -193 32 -14 2 -34 -1 -45 -8z
m355 -196 c33 -5 84 -4 128 3 39 6 72 9 71 6 0 -3 -32 -34 -72 -68 -81 -70
-63 -73 -173 25 -46 42 -54 52 -34 48 14 -3 50 -10 80 -14z"/>
</g>
</svg>
